<?xml version="1.0" standalone="no"?>
<!DOCTYPE svg PUBLIC "-//W3C//DTD SVG 20010904//EN"
 "http://www.w3.org/TR/2001/REC-SVG-20010904/DTD/svg10.dtd">
<svg version="1.0" xmlns="http://www.w3.org/2000/svg"
 width="363.000000pt" height="354.000000pt" viewBox="0 0 363.000000 354.000000"
 preserveAspectRatio="xMidYMid meet">

<g transform="translate(0.000000,354.000000) scale(0.100000,-0.100000)"
fill="#000000" stroke="none">
<path d="M1847 2972 c-23 -25 -21 -51 5 -79 l21 -23 -82 0 c-299 0 -593 -201
-704 -481 -14 -36 -29 -84 -33 -107 -8 -49 -17 -58 -34 -37 -26 31 -90 5 -90
-37 0 -22 125 -175 148 -182 33 -11 49 3 113 91 72 102 74 105 59 132 -13 26
-56 28 -82 4 -23 -20 -23 -10 1 58 93 272 350 458 630 459 l75 0 -33 -34 c-38
-39 -38 -64 0 -85 25 -14 30 -13 80 18 105 63 149 100 149 124 0 31 -157 197
-186 197 -11 0 -28 -8 -37 -18z"/>
<path d="M2222 2724 c-37 -26 -27 -51 61 -137 144 -143 205 -297 194 -490 -5
-102 -24 -174 -67 -261 -20 -38 -29 -45 -156 -101 -75 -33 -140 -61 -145 -63
-5 -2 -9 40 -9 98 0 99 1 104 35 159 183 296 75 586 -236 634 -184 28 -366
-58 -440 -208 -25 -52 -33 -82 -38 -152 -6 -79 -11 -96 -49 -164 -23 -42 -42
-86 -42 -98 0 -28 43 -71 70 -71 17 0 20 -6 20 -47 0 -95 56 -153 148 -153 42
0 42 0 42 -36 0 -31 -3 -35 -17 -29 -10 4 -42 16 -71 26 -29 10 -72 34 -95 52
-44 36 -296 167 -321 167 -8 0 -22 -10 -30 -22 -14 -19 -16 -72 -15 -378 0
-195 4 -363 8 -374 10 -26 616 -335 658 -336 23 0 36 6 44 21 8 15 9 124 3
391 l-7 370 -33 20 -34 20 0 89 c0 105 -4 109 -104 109 -80 0 -92 14 -81 96 8
70 -4 94 -50 94 -19 0 -35 2 -35 4 0 2 19 37 42 78 38 66 42 80 44 150 3 92
25 149 79 203 92 91 275 116 396 55 158 -81 182 -265 60 -470 l-41 -68 0 -137
0 -136 -89 -41 c-63 -28 -91 -47 -95 -62 -3 -11 -6 -186 -6 -388 0 -320 2
-369 16 -382 8 -9 24 -16 34 -16 23 0 617 285 643 307 16 15 17 45 17 357 0
291 -2 345 -15 364 -14 19 -14 25 -2 49 8 16 25 60 38 98 21 62 24 88 24 220
0 139 -2 156 -28 230 -36 100 -83 179 -156 257 -51 56 -125 118 -140 118 -4 0
-17 -7 -29 -16z m-542 -1559 c0 -162 -2 -295 -5 -295 -3 0 -120 57 -260 127
l-255 128 0 297 0 298 260 -130 260 -130 0 -295z m748 240 l-3 -296 -248 -119
c-136 -66 -250 -120 -252 -120 -3 0 -4 138 -3 306 l3 307 245 108 c135 60 248
109 253 109 4 0 6 -133 5 -295z"/>
</g>
</svg>
